<?xml version="1.0" standalone="no"?>
<!DOCTYPE svg PUBLIC "-//W3C//DTD SVG 20010904//EN"
 "http://www.w3.org/TR/2001/REC-SVG-20010904/DTD/svg10.dtd">
<svg version="1.0" xmlns="http://www.w3.org/2000/svg"
 width="1024.000000pt" height="1024.000000pt" viewBox="0 0 1024.000000 1024.000000"
 preserveAspectRatio="xMidYMid meet">
<metadata>
Created by potrace 1.14, written by Peter Selinger 2001-2017
</metadata>
<g transform="translate(0.000000,1024.000000) scale(0.100000,-0.100000)"
fill="#000000" stroke="none">
<path d="M2365 7063 c-482 -67 -950 -329 -1281 -719 -249 -291 -456 -719 -561
-1154 -13 -58 -26 -114 -28 -125 -1 -11 -8 -49 -14 -85 -26 -157 -36 -291 -35
-505 1 -461 64 -747 214 -964 72 -105 195 -206 302 -247 23 -10 48 -20 53 -24
14 -10 148 -41 215 -48 72 -9 322 -8 380 1 25 4 65 9 90 12 61 7 204 32 325
56 121 23 128 25 185 34 25 4 52 9 60 11 8 2 60 13 115 25 108 22 529 130 685
174 52 15 102 29 110 31 8 2 85 24 170 49 484 143 590 173 810 230 160 42 221
56 305 72 17 3 67 6 111 7 79 1 83 0 137 -37 31 -22 102 -86 159 -144 209
-212 269 -267 359 -326 186 -121 398 -174 699 -175 192 0 457 34 655 85 33 8
67 16 75 18 24 5 123 33 285 82 83 25 155 46 160 47 20 4 403 128 580 188 309
105 890 327 1081 413 16 8 82 36 145 63 153 66 333 149 509 234 80 39 168 81
196 94 113 55 184 159 184 271 0 171 -128 304 -293 305 -74 0 -97 -8 -290
-101 -81 -39 -169 -80 -195 -92 -26 -12 -85 -39 -132 -61 -47 -22 -143 -64
-215 -95 -71 -31 -134 -59 -140 -64 -5 -5 -15 -9 -22 -9 -7 0 -36 -11 -65 -24
-59 -27 -385 -158 -463 -186 -27 -10 -81 -31 -120 -45 -140 -53 -476 -170
-575 -200 -3 -1 -12 -4 -20 -8 -39 -15 -546 -173 -587 -182 -10 -2 -67 -18
-128 -34 -269 -75 -442 -100 -655 -96 -160 3 -192 7 -265 38 -99 41 -125 64
-365 312 -157 163 -305 260 -462 306 -153 44 -391 32 -637 -32 -64 -17 -123
-32 -131 -34 -39 -9 -279 -76 -630 -176 -661 -190 -722 -207 -885 -248 -162
-40 -384 -91 -420 -96 -11 -1 -60 -10 -110 -20 -112 -21 -111 -21 -165 -30
-62 -10 -79 -13 -98 -19 -9 -2 -44 -8 -77 -12 -33 -3 -71 -8 -85 -11 -14 -2
-74 -6 -135 -8 -144 -6 -246 17 -283 64 -67 86 -105 317 -106 646 0 129 10
320 18 334 2 3 6 29 10 58 3 28 8 57 11 65 2 7 6 24 9 38 27 160 112 403 203
585 182 364 403 593 732 760 80 41 261 110 261 100 0 -2 10 -1 23 4 67 25 74
23 80 -17 10 -56 71 -146 124 -181 59 -40 108 -53 186 -50 157 6 279 137 280
302 1 248 -73 416 -227 511 -67 41 -138 58 -251 60 -60 2 -123 1 -140 -1z"/>
</g>
</svg>
