<svg viewBox="0 0 36 36" xmlns="http://www.w3.org/2000/svg" xmlns:xlink="http://www.w3.org/1999/xlink" aria-hidden="true" role="img"  preserveAspectRatio="xMidYMid meet">

	<rect fill="#473C33" x="0" y="0" width="36" height="36"></rect>

	<path fill="#ffffff" d="M0 10s0-4 4-4h28s4 0 4 4v18s0 4-4 4H4s-4 0-4-4V10z"></path>

	<circle fill="#473C33" cx="21" cy="19" r="10"></circle>

	<circle fill="#ffffff" cx="21" cy="19" r="8"></circle>

	<circle fill="#473C33" cx="21" cy="19" r="5"></circle>

	<circle fill="#FFF" cx="32.5" cy="9.5" r="1.5"></circle>

	<path fill="#473C33" d="M16 9l3-6l-6 2l-4-5l-2 5l-6-1l4 6l-5 4h6l-2 6l6-3l6 5l-1-8l6-1z">
		<!-- <animateTransform
	      attributeName="transform"
	      attributeType="XML"
	      type="rotate"
	      from="0 12 10"
	      to="360 12 10"
	      dur="5s"
	      repeatCount="indefinite" /> -->
	</path>

	<path fill="#FFF" d="M10 14l-3 2l1-3l-3-1l3-2l-3-3h4l1-3l2 3l3-1l-2 3l3 3l-3 1l1 4z">
		<!-- <animateTransform
	      attributeName="transform"
	      attributeType="XML"
	      type="rotate"
	      from="0 12 10"
	      to="360 12 10"
	      dur="5s"
	      repeatCount="indefinite" /> -->
	</path>

</svg>