<svg version="1.1" xmlns="http://www.w3.org/2000/svg" viewBox="0 0 30 30" fill="#ffffff">

	<g
	    fill="#ffffff"
	    stroke="#ffffff"
	    transform="translate(0 0)">
		<rect
			x="1"
			y="1"
			rx="2"
			width="10"
			height="10"
			stroke-width="2px"
			stroke-linecap="round"
			fill="transparent"
		/>

		<rect
			x="3"
			y="3"
			rx="2"
			width="6"
			height="6"
			stroke="#ffffff"
			stroke-width="0px"
			stroke-linecap="round"
		/>
	</g>

	<g
	    fill="#ffffff"
	    stroke="#ffffff"
	    transform="translate(18 0)">
		<rect
			x="1"
			y="1"
			rx="2"
			width="10"
			height="10"
			stroke-width="2px"
			stroke-linecap="round"
			fill="transparent"
		/>

		<rect
			x="3"
			y="3"
			rx="2"
			width="6"
			height="6"
			stroke="#ffffff"
			stroke-width="0px"
			stroke-linecap="round"
		/>
	</g>

	<g
	    fill="#ffffff"
	    stroke="#ffffff"
	    transform="translate(0 18)">
		<rect
			x="1"
			y="1"
			rx="2"
			width="10"
			height="10"
			stroke-width="2px"
			stroke-linecap="round"
			fill="transparent"
		/>

		<rect
			x="3"
			y="3"
			rx="2"
			width="6"
			height="6"
			stroke="#ffffff"
			stroke-width="0px"
			stroke-linecap="round"
		/>
	</g>


	<g
	    fill="#ffffff"
	    stroke="#ffffff"
	    transform="translate(15 15)">
		<rect
			x="0"
			y="0"
			rx="2"
			width="8"
			height="8"
			stroke-width="2px"
			stroke-linecap="round"
			fill="transparent"
		/>

		<rect
			x="3"
			y="3"
			rx="2"
			width="2"
			height="2"
			stroke="#ffffff"
			stroke-width="0px"
			stroke-linecap="round"
		/>
	</g>

	<rect
		x="16"
		y="0"
		rx="1"
		width="2"
		height="2"
		stroke="#ffffff"
		stroke-width="0px"
		stroke-linecap="round"
	/>
	<rect
		x="12"
		y="0"
		rx="1"
		width="2"
		height="2"
		stroke="#ffffff"
		stroke-width="0px"
		stroke-linecap="round"
	/>

	<rect
		x="16"
		y="2"
		rx="1"
		width="2"
		height="2"
		stroke="#ffffff"
		stroke-width="0px"
		stroke-linecap="round"
	/>
	<rect
		x="14"
		y="2"
		rx="1"
		width="2"
		height="2"
		stroke="#ffffff"
		stroke-width="0px"
		stroke-linecap="round"
	/>
	<rect
		x="12"
		y="2"
		rx="1"
		width="2"
		height="2"
		stroke="#ffffff"
		stroke-width="0px"
		stroke-linecap="round"
	/>

	<rect
		x="16"
		y="4"
		rx="1"
		width="2"
		height="2"
		stroke="#ffffff"
		stroke-width="0px"
		stroke-linecap="round"
	/>
	<rect
		x="14"
		y="4"
		rx="1"
		width="2"
		height="2"
		stroke="#ffffff"
		stroke-width="0px"
		stroke-linecap="round"
	/>

	<rect
		x="12"
		y="6"
		rx="1"
		width="2"
		height="2"
		stroke="#ffffff"
		stroke-width="0px"
		stroke-linecap="round"
	/>

	<rect
		x="16"
		y="8"
		rx="1"
		width="2"
		height="2"
		stroke="#ffffff"
		stroke-width="0px"
		stroke-linecap="round"
	/>


	<rect
		x="12"
		y="10"
		rx="1"
		width="2"
		height="2"
		stroke="#ffffff"
		stroke-width="0px"
		stroke-linecap="round"
	/>

	<rect
		x="16"
		y="10"
		rx="1"
		width="2"
		height="2"
		stroke="#ffffff"
		stroke-width="0px"
		stroke-linecap="round"
	/>

	<!-- <rect
		x="0"
		y="12"
		rx="1"
		width="2"
		height="2"
		stroke="#ffffff"
		stroke-width="0px"
		stroke-linecap="round"
	/> -->
	<rect
		x="2"
		y="12"
		rx="1"
		width="2"
		height="2"
		stroke="#ffffff"
		stroke-width="0px"
		stroke-linecap="round"
	/>
	<!-- <rect
		x="4"
		y="12"
		rx="1"
		width="2"
		height="2"
		stroke="#ffffff"
		stroke-width="0px"
		stroke-linecap="round"
	/>
	<rect
		x="6"
		y="12"
		rx="1"
		width="2"
		height="2"
		stroke="#ffffff"
		stroke-width="0px"
		stroke-linecap="round"
	/> -->
	<rect
		x="8"
		y="12"
		rx="1"
		width="2"
		height="2"
		stroke="#ffffff"
		stroke-width="0px"
		stroke-linecap="round"
	/>
	<rect
		x="10"
		y="12"
		rx="1"
		width="2"
		height="2"
		stroke="#ffffff"
		stroke-width="0px"
		stroke-linecap="round"
	/>
	<rect
		x="12"
		y="12"
		rx="1"
		width="2"
		height="2"
		stroke="#ffffff"
		stroke-width="0px"
		stroke-linecap="round"
	/>
	<!-- <rect
		x="14"
		y="10"
		rx="1"
		width="2"
		height="2"
		stroke="#ffffff"
		stroke-width="0px"
		stroke-linecap="round"
	/>
	<rect
		x="14"
		y="12"
		rx="1"
		width="2"
		height="2"
		stroke="#ffffff"
		stroke-width="0px"
		stroke-linecap="round"
	/> -->
	<!-- <rect
		x="16"
		y="12"
		rx="1"
		width="2"
		height="2"
		stroke="#ffffff"
		stroke-width="0px"
		stroke-linecap="round"
	/>
	<rect
		x="18"
		y="12"
		rx="1"
		width="2"
		height="2"
		stroke="#ffffff"
		stroke-width="0px"
		stroke-linecap="round"
	/>
	<rect
		x="20"
		y="12"
		rx="1"
		width="2"
		height="2"
		stroke="#ffffff"
		stroke-width="0px"
		stroke-linecap="round"
	/> -->
	<rect
		x="22"
		y="12"
		rx="1"
		width="2"
		height="2"
		stroke="#ffffff"
		stroke-width="0px"
		stroke-linecap="round"
	/>
	<!-- <rect
		x="24"
		y="12"
		rx="1"
		width="2"
		height="2"
		stroke="#ffffff"
		stroke-width="0px"
		stroke-linecap="round"
	/>
	<rect
		x="26"
		y="12"
		rx="1"
		width="2"
		height="2"
		stroke="#ffffff"
		stroke-width="0px"
		stroke-linecap="round"
	/> -->
	<rect
		x="28"
		y="12"
		rx="1"
		width="2"
		height="2"
		stroke="#ffffff"
		stroke-width="0px"
		stroke-linecap="round"
	/>

	<rect
		x="0"
		y="14"
		rx="1"
		width="2"
		height="2"
		stroke="#ffffff"
		stroke-width="0px"
		stroke-linecap="round"
	/>
	<!-- <rect
		x="2"
		y="14"
		rx="1"
		width="2"
		height="2"
		stroke="#ffffff"
		stroke-width="0px"
		stroke-linecap="round"
	/>
	<rect
		x="4"
		y="14"
		rx="1"
		width="2"
		height="2"
		stroke="#ffffff"
		stroke-width="0px"
		stroke-linecap="round"
	/> -->
	<rect
		x="6"
		y="14"
		rx="1"
		width="2"
		height="2"
		stroke="#ffffff"
		stroke-width="0px"
		stroke-linecap="round"
	/>
	<!-- <rect
		x="8"
		y="14"
		rx="1"
		width="2"
		height="2"
		stroke="#ffffff"
		stroke-width="0px"
		stroke-linecap="round"
	/>
	<rect
		x="10"
		y="14"
		rx="1"
		width="2"
		height="2"
		stroke="#ffffff"
		stroke-width="0px"
		stroke-linecap="round"
	/> -->
	<rect
		x="12"
		y="14"
		rx="1"
		width="2"
		height="2"
		stroke="#ffffff"
		stroke-width="0px"
		stroke-linecap="round"
	/>
	<!-- <rect
		x="14"
		y="14"
		rx="1"
		width="2"
		height="2"
		stroke="#ffffff"
		stroke-width="0px"
		stroke-linecap="round"
	/> -->
	<rect
		x="16"
		y="14"
		rx="1"
		width="2"
		height="2"
		stroke="#ffffff"
		stroke-width="0px"
		stroke-linecap="round"
	/>
	<rect
		x="18"
		y="14"
		rx="1"
		width="2"
		height="2"
		stroke="#ffffff"
		stroke-width="0px"
		stroke-linecap="round"
	/>
	<!-- <rect
		x="20"
		y="14"
		rx="1"
		width="2"
		height="2"
		stroke="#ffffff"
		stroke-width="0px"
		stroke-linecap="round"
	/> -->
	<!-- <rect
		x="22"
		y="14"
		rx="1"
		width="2"
		height="2"
		stroke="#ffffff"
		stroke-width="0px"
		stroke-linecap="round"
	/> -->
	<rect
		x="24"
		y="14"
		rx="1"
		width="2"
		height="2"
		stroke="#ffffff"
		stroke-width="0px"
		stroke-linecap="round"
	/>
	<rect
		x="26"
		y="14"
		rx="1"
		width="2"
		height="2"
		stroke="#ffffff"
		stroke-width="0px"
		stroke-linecap="round"
	/>
	<!-- <rect
		x="28"
		y="14"
		rx="1"
		width="2"
		height="2"
		stroke="#ffffff"
		stroke-width="0px"
		stroke-linecap="round"
	/> -->

	<!-- <rect
		x="0"
		y="16"
		rx="1"
		width="2"
		height="2"
		stroke="#ffffff"
		stroke-width="0px"
		stroke-linecap="round"
	/>
	<rect
		x="2"
		y="16"
		rx="1"
		width="2"
		height="2"
		stroke="#ffffff"
		stroke-width="0px"
		stroke-linecap="round"
	/> -->
	<rect
		x="4"
		y="16"
		rx="1"
		width="2"
		height="2"
		stroke="#ffffff"
		stroke-width="0px"
		stroke-linecap="round"
	/>
	<!-- <rect
		x="6"
		y="16"
		rx="1"
		width="2"
		height="2"
		stroke="#ffffff"
		stroke-width="0px"
		stroke-linecap="round"
	/> -->
	<rect
		x="8"
		y="16"
		rx="1"
		width="2"
		height="2"
		stroke="#ffffff"
		stroke-width="0px"
		stroke-linecap="round"
	/>
	<rect
		x="10"
		y="16"
		rx="1"
		width="2"
		height="2"
		stroke="#ffffff"
		stroke-width="0px"
		stroke-linecap="round"
	/>
	<rect
		x="12"
		y="16"
		rx="1"
		width="2"
		height="2"
		stroke="#ffffff"
		stroke-width="0px"
		stroke-linecap="round"
	/>
	<rect
		x="14"
		y="16"
		rx="1"
		width="2"
		height="2"
		stroke="#ffffff"
		stroke-width="0px"
		stroke-linecap="round"
	/>
	<!-- <rect
		x="16"
		y="16"
		rx="1"
		width="2"
		height="2"
		stroke="#ffffff"
		stroke-width="0px"
		stroke-linecap="round"
	/>
	<rect
		x="18"
		y="16"
		rx="1"
		width="2"
		height="2"
		stroke="#ffffff"
		stroke-width="0px"
		stroke-linecap="round"
	/>
	<rect
		x="20"
		y="16"
		rx="1"
		width="2"
		height="2"
		stroke="#ffffff"
		stroke-width="0px"
		stroke-linecap="round"
	/> -->
	<rect
		x="22"
		y="16"
		rx="1"
		width="2"
		height="2"
		stroke="#ffffff"
		stroke-width="0px"
		stroke-linecap="round"
	/>
	<rect
		x="24"
		y="16"
		rx="1"
		width="2"
		height="2"
		stroke="#ffffff"
		stroke-width="0px"
		stroke-linecap="round"
	/>
	<rect
		x="26"
		y="16"
		rx="1"
		width="2"
		height="2"
		stroke="#ffffff"
		stroke-width="0px"
		stroke-linecap="round"
	/>
	<rect
		x="28"
		y="16"
		rx="1"
		width="2"
		height="2"
		stroke="#ffffff"
		stroke-width="0px"
		stroke-linecap="round"
	/>

	<rect
		x="12"
		y="18"
		rx="1"
		width="2"
		height="2"
		stroke="#ffffff"
		stroke-width="0px"
		stroke-linecap="round"
	/>
	<rect
		x="14"
		y="18"
		rx="1"
		width="2"
		height="2"
		stroke="#ffffff"
		stroke-width="0px"
		stroke-linecap="round"
	/>
	<!-- <rect
		x="16"
		y="18"
		rx="1"
		width="2"
		height="2"
		stroke="#ffffff"
		stroke-width="0px"
		stroke-linecap="round"
	/>
	<rect
		x="18"
		y="18"
		rx="1"
		width="2"
		height="2"
		stroke="#ffffff"
		stroke-width="0px"
		stroke-linecap="round"
	/>
	<rect
		x="20"
		y="18"
		rx="1"
		width="2"
		height="2"
		stroke="#ffffff"
		stroke-width="0px"
		stroke-linecap="round"
	/> -->
	<rect
		x="22"
		y="18"
		rx="1"
		width="2"
		height="2"
		stroke="#ffffff"
		stroke-width="0px"
		stroke-linecap="round"
	/>
	<!-- <rect
		x="24"
		y="18"
		rx="1"
		width="2"
		height="2"
		stroke="#ffffff"
		stroke-width="0px"
		stroke-linecap="round"
	/>
	<rect
		x="26"
		y="18"
		rx="1"
		width="2"
		height="2"
		stroke="#ffffff"
		stroke-width="0px"
		stroke-linecap="round"
	/> -->
	<rect
		x="28"
		y="18"
		rx="1"
		width="2"
		height="2"
		stroke="#ffffff"
		stroke-width="0px"
		stroke-linecap="round"
	/>

	<!-- <rect
		x="12"
		y="20"
		rx="1"
		width="2"
		height="2"
		stroke="#ffffff"
		stroke-width="0px"
		stroke-linecap="round"
	/>
	<rect
		x="14"
		y="20"
		rx="1"
		width="2"
		height="2"
		stroke="#ffffff"
		stroke-width="0px"
		stroke-linecap="round"
	/> -->
	<!-- <rect
		x="16"
		y="20"
		rx="1"
		width="2"
		height="2"
		stroke="#ffffff"
		stroke-width="0px"
		stroke-linecap="round"
	/>
	<rect
		x="18"
		y="20"
		rx="1"
		width="2"
		height="2"
		stroke="#ffffff"
		stroke-width="0px"
		stroke-linecap="round"
	/>
	<rect
		x="20"
		y="20"
		rx="1"
		width="2"
		height="2"
		stroke="#ffffff"
		stroke-width="0px"
		stroke-linecap="round"
	/> -->
	<rect
		x="22"
		y="20"
		rx="1"
		width="2"
		height="2"
		stroke="#ffffff"
		stroke-width="0px"
		stroke-linecap="round"
	/>
	<!-- <rect
		x="24"
		y="20"
		rx="1"
		width="2"
		height="2"
		stroke="#ffffff"
		stroke-width="0px"
		stroke-linecap="round"
	/>
	<rect
		x="26"
		y="20"
		rx="1"
		width="2"
		height="2"
		stroke="#ffffff"
		stroke-width="0px"
		stroke-linecap="round"
	/> -->
	<rect
		x="28"
		y="20"
		rx="1"
		width="2"
		height="2"
		stroke="#ffffff"
		stroke-width="0px"
		stroke-linecap="round"
	/>

	<rect
		x="12"
		y="22"
		rx="1"
		width="2"
		height="2"
		stroke="#ffffff"
		stroke-width="0px"
		stroke-linecap="round"
	/>
	<!-- <rect
		x="14"
		y="22"
		rx="1"
		width="2"
		height="2"
		stroke="#ffffff"
		stroke-width="0px"
		stroke-linecap="round"
	/> -->
	<!-- <rect
		x="16"
		y="22"
		rx="1"
		width="2"
		height="2"
		stroke="#ffffff"
		stroke-width="0px"
		stroke-linecap="round"
	/>
	<rect
		x="18"
		y="22"
		rx="1"
		width="2"
		height="2"
		stroke="#ffffff"
		stroke-width="0px"
		stroke-linecap="round"
	/>
	<rect
		x="20"
		y="22"
		rx="1"
		width="2"
		height="2"
		stroke="#ffffff"
		stroke-width="0px"
		stroke-linecap="round"
	/> -->
	<!-- <rect
		x="22"
		y="22"
		rx="1"
		width="2"
		height="2"
		stroke="#ffffff"
		stroke-width="0px"
		stroke-linecap="round"
	/>
	<rect
		x="24"
		y="22"
		rx="1"
		width="2"
		height="2"
		stroke="#ffffff"
		stroke-width="0px"
		stroke-linecap="round"
	/> -->
	<rect
		x="26"
		y="22"
		rx="1"
		width="2"
		height="2"
		stroke="#ffffff"
		stroke-width="0px"
		stroke-linecap="round"
	/>
	<!-- <rect
		x="28"
		y="22"
		rx="1"
		width="2"
		height="2"
		stroke="#ffffff"
		stroke-width="0px"
		stroke-linecap="round"
	/> -->

	<rect
		x="12"
		y="24"
		rx="1"
		width="2"
		height="2"
		stroke="#ffffff"
		stroke-width="0px"
		stroke-linecap="round"
	/>
	<rect
		x="14"
		y="24"
		rx="1"
		width="2"
		height="2"
		stroke="#ffffff"
		stroke-width="0px"
		stroke-linecap="round"
	/>
	<rect
		x="16"
		y="24"
		rx="1"
		width="2"
		height="2"
		stroke="#ffffff"
		stroke-width="0px"
		stroke-linecap="round"
	/>
	<!-- <rect
		x="18"
		y="24"
		rx="1"
		width="2"
		height="2"
		stroke="#ffffff"
		stroke-width="0px"
		stroke-linecap="round"
	/>
	<rect
		x="20"
		y="24"
		rx="1"
		width="2"
		height="2"
		stroke="#ffffff"
		stroke-width="0px"
		stroke-linecap="round"
	/> -->
	<rect
		x="22"
		y="24"
		rx="1"
		width="2"
		height="2"
		stroke="#ffffff"
		stroke-width="0px"
		stroke-linecap="round"
	/>
	<!-- <rect
		x="24"
		y="24"
		rx="1"
		width="2"
		height="2"
		stroke="#ffffff"
		stroke-width="0px"
		stroke-linecap="round"
	/>
	<rect
		x="26"
		y="24"
		rx="1"
		width="2"
		height="2"
		stroke="#ffffff"
		stroke-width="0px"
		stroke-linecap="round"
	/> -->
	<rect
		x="28"
		y="24"
		rx="1"
		width="2"
		height="2"
		stroke="#ffffff"
		stroke-width="0px"
		stroke-linecap="round"
	/>

	<rect
		x="12"
		y="26"
		rx="1"
		width="2"
		height="2"
		stroke="#ffffff"
		stroke-width="0px"
		stroke-linecap="round"
	/>
	<!-- <rect
		x="14"
		y="26"
		rx="1"
		width="2"
		height="2"
		stroke="#ffffff"
		stroke-width="0px"
		stroke-linecap="round"
	/>
	<rect
		x="16"
		y="26"
		rx="1"
		width="2"
		height="2"
		stroke="#ffffff"
		stroke-width="0px"
		stroke-linecap="round"
	/>
	<rect
		x="18"
		y="26"
		rx="1"
		width="2"
		height="2"
		stroke="#ffffff"
		stroke-width="0px"
		stroke-linecap="round"
	/> -->
	<rect
		x="20"
		y="26"
		rx="1"
		width="2"
		height="2"
		stroke="#ffffff"
		stroke-width="0px"
		stroke-linecap="round"
	/>
	<rect
		x="22"
		y="26"
		rx="1"
		width="2"
		height="2"
		stroke="#ffffff"
		stroke-width="0px"
		stroke-linecap="round"
	/>
	<rect
		x="24"
		y="26"
		rx="1"
		width="2"
		height="2"
		stroke="#ffffff"
		stroke-width="0px"
		stroke-linecap="round"
	/>
	<!-- <rect
		x="26"
		y="26"
		rx="1"
		width="2"
		height="2"
		stroke="#ffffff"
		stroke-width="0px"
		stroke-linecap="round"
	/> -->
	<rect
		x="28"
		y="26"
		rx="1"
		width="2"
		height="2"
		stroke="#ffffff"
		stroke-width="0px"
		stroke-linecap="round"
	/>

	<!-- <rect
		x="12"
		y="28"
		rx="1"
		width="2"
		height="2"
		stroke="#ffffff"
		stroke-width="0px"
		stroke-linecap="round"
	/>
	<rect
		x="14"
		y="28"
		rx="1"
		width="2"
		height="2"
		stroke="#ffffff"
		stroke-width="0px"
		stroke-linecap="round"
	/> -->
	<rect
		x="16"
		y="28"
		rx="1"
		width="2"
		height="2"
		stroke="#ffffff"
		stroke-width="0px"
		stroke-linecap="round"
	/>
	<rect
		x="18"
		y="28"
		rx="1"
		width="2"
		height="2"
		stroke="#ffffff"
		stroke-width="0px"
		stroke-linecap="round"
	/>
	<rect
		x="20"
		y="28"
		rx="1"
		width="2"
		height="2"
		stroke="#ffffff"
		stroke-width="0px"
		stroke-linecap="round"
	/>
	<rect
		x="22"
		y="28"
		rx="1"
		width="2"
		height="2"
		stroke="#ffffff"
		stroke-width="0px"
		stroke-linecap="round"
	/>
	<!-- <rect
		x="24"
		y="28"
		rx="1"
		width="2"
		height="2"
		stroke="#ffffff"
		stroke-width="0px"
		stroke-linecap="round"
	/>
	<rect
		x="26"
		y="28"
		rx="1"
		width="2"
		height="2"
		stroke="#ffffff"
		stroke-width="0px"
		stroke-linecap="round"
	/> -->
	<rect
		x="28"
		y="28"
		rx="1"
		width="2"
		height="2"
		stroke="#ffffff"
		stroke-width="0px"
		stroke-linecap="round"
	/>
</svg>
