<svg id="e2fHnSbxjA31" xmlns="http://www.w3.org/2000/svg" xmlns:xlink="http://www.w3.org/1999/xlink" viewBox="0 0 300 300" shape-rendering="geometricPrecision" text-rendering="geometricPrecision">
<style><![CDATA[
#e2fHnSbxjA35_tr {animation: e2fHnSbxjA35_tr__tr 3000ms linear infinite normal forwards}@keyframes e2fHnSbxjA35_tr__tr { 0% {transform: translate(54.124266px,150.000007px) rotate(82.753671deg)} 10% {transform: translate(54.124266px,150.000007px) rotate(19.473986deg)} 100% {transform: translate(54.124266px,150.000007px) rotate(19.473986deg)}} #e2fHnSbxjA39_tr {animation: e2fHnSbxjA39_tr__tr 3000ms linear infinite normal forwards}@keyframes e2fHnSbxjA39_tr__tr { 0% {transform: translate(54.548747px,139.261296px) rotate(53.065886deg)} 10% {transform: translate(54.548747px,139.261296px) rotate(-1.128604deg)} 100% {transform: translate(54.548747px,139.261296px) rotate(-1.128604deg)}} #e2fHnSbxjA310 {animation: e2fHnSbxjA310_c_o 3000ms linear infinite normal forwards}@keyframes e2fHnSbxjA310_c_o { 0% {opacity: 0} 33.333333% {opacity: 0} 50% {opacity: 1} 100% {opacity: 1}} #e2fHnSbxjA314 {animation: e2fHnSbxjA314_c_o 3000ms linear infinite normal forwards}@keyframes e2fHnSbxjA314_c_o { 0% {opacity: 0} 10% {opacity: 0} 33.333333% {opacity: 1} 100% {opacity: 1}}
]]></style>
<rect width="346.54526" height="309.587574" rx="0" ry="0" transform="translate(-3.672748-.706048)" opacity="0" fill="#473c33" stroke-width="0"/><ellipse rx="28.655597" ry="28.655597" transform="translate(54.124263 92.394222)" fill="#fff" stroke-width="0"/><path d="M86.797,187.466427L68.318157,230.851634" transform="translate(-32.672735 0.000012)" fill="none" stroke="#fff" stroke-width="3" stroke-linecap="round" stroke-linejoin="round"/><g id="e2fHnSbxjA35_tr" transform="translate(54.124266,150.000007) rotate(82.753671)"><path d="M86.797,150q38.832353-16.630959,39.367971-16.630959" transform="translate(-86.797,-150)" fill="none" stroke="#fff" stroke-width="3" stroke-linecap="round" stroke-linejoin="round"/></g><path d="M86.797,150l45.795394,13.899304" transform="matrix(.588192 0.808721-.808721 0.588192 124.37915-8.423381)" fill="none" stroke="#fff" stroke-width="3" stroke-linecap="round" stroke-linejoin="round"/><path d="M39.394751,121.049812l.535619,66.41662" transform="translate(14.193893 0.000007)" fill="none" stroke="#fff" stroke-width="3" stroke-linecap="round" stroke-linejoin="round"/><path d="M100.990894,187.466432l39.63578,47.670151" transform="translate(-46.866628 0.000007)" fill="none" stroke="#fff" stroke-width="3" stroke-linecap="round" stroke-linejoin="round"/><g id="e2fHnSbxjA39_tr" transform="translate(54.548747,139.261296) rotate(53.065886)"><rect width="18.819689" height="23.330637" rx="3" ry="3" transform="scale(0.735388,1) translate(57.759322,-11.753065)" fill="#fff" stroke-width="0" stroke-linecap="round" stroke-linejoin="round"/></g><g id="e2fHnSbxjA310" transform="translate(-.000002-9.666781)" opacity="0"><path d="M186.282631,96.847375L285.881139,70.45377l-.995985,204.674934-109.807355-79.917526l11.204832-98.363803Z" fill="none" stroke="#fff"/><path d="M180.804713,191.123448q30.377545-56.802999,32.369515-56.802999t30.875538,96.531196l-63.245053-39.728197Z" transform="translate(0 0.000001)" fill="#fff"/><ellipse rx="19.981951" ry="19.981951" transform="matrix(1-.176327 0 1 250.46142 112.376173)" fill="#fff" stroke-width="0"/></g><g id="e2fHnSbxjA314" transform="translate(-2.614463-9.930705)" opacity="0"><path d="M117.061668,163.124455q104.578434,67.727191,105.076426,67.727191" transform="translate(0 0.000001)" fill="none" stroke="#fff" stroke-opacity="0.3"/><path d="M117.061668,134.320449L233.09393,83.899568" fill="none" stroke="#fff" stroke-opacity="0.3"/></g></svg>
