<svg version="1.1" xmlns="http://www.w3.org/2000/svg" viewBox="0 0 30 30">
	<!-- <path
			stroke="#000000"
			stroke-width="2px"
			stroke-linecap="round"
			fill="transparent"
			d="M 2,15
			C 2,22 8,28 15,28
			C 22,28 28,22 28,15
			C 28,8 22,2 15,2
			C 8,2 4,8 4,8
			"
			/> -->
	<rect
		transform="translate(0 -3)"
		x="18"
		y="13"
		width="10"
		height="15"
		rx="2"
		stroke="#ffffff"
		stroke-width="2px"
		fill="transparent"
		/>
	<path
		transform="translate(0 -3)"
		stroke="#ffffff"
		stroke-width="2px"
		stroke-linecap="round"
		fill="transparent"
		d="M 15,28
		C 15,28 5,28 5,28
		C 4,28 3,27 3,26
		C 3,26 3,10 3,10
		C 3,9 4,8 5,8
		C 5,8 26,8 26,8
		C 27,8 28,9 28,10
		"
		/>
</svg>
